<svg width="90" height="110" fill="none" xmlns="http://www.w3.org/2000/svg">
    <rect width="90" height="110" rx="10" fill="url(#a)"/>
    <rect x="10" y="10" width="70" height="90" rx="8" fill="url(#b)"/>
    <path d="m19 30.5 3.48 2.924a1 1 0 0 0 1.334-.042L30.5 27" stroke="#6745FF" stroke-width="2" stroke-linejoin="round"/>
    <path d="M38 31h30" stroke="#351670" stroke-width="3" stroke-linecap="round"/>
    <path d="m19 44.5 3.48 2.924a1 1 0 0 0 1.334-.042L30.5 41" stroke="#6745FF" stroke-width="2" stroke-linejoin="round"/>
    <path d="M38 45h30" stroke="#351670" stroke-width="3" stroke-linecap="round"/>
    <path d="m19 58.5 3.48 2.924a1 1 0 0 0 1.334-.042L30.5 55" stroke="#6745FF" stroke-width="2" stroke-linejoin="round"/>
    <path d="M38 59h30" stroke="#351670" stroke-width="3" stroke-linecap="round"/>
    <defs>
        <linearGradient id="a" x1="45" y1="0" x2="45" y2="110" gradientUnits="userSpaceOnUse">
            <stop stop-color="#23DDEE"/>
            <stop offset=".175" stop-color="#15BACD"/>
            <stop offset=".53" stop-color="#3E4F90"/>
            <stop offset="1" stop-color="#351670"/>
        </linearGradient>
        <linearGradient id="b" x1="45" y1="10" x2="45" y2="100" gradientUnits="userSpaceOnUse">
            <stop stop-color="#fff"/>
            <stop offset=".765" stop-color="#D4C6EB"/>
            <stop offset="1" stop-color="#9776D0"/>
        </linearGradient>
    </defs>
</svg>
