<svg width="21" height="17" viewBox="0 0 21 17" fill="none" xmlns="http://www.w3.org/2000/svg">
<path fill-rule="evenodd" clip-rule="evenodd" d="M6.96627 2.5C6.96627 3.88071 5.84698 5 4.46627 5C3.08555 5 1.96627 3.88071 1.96627 2.5C1.96627 1.11929 3.08555 0 4.46627 0C5.84698 0 6.96627 1.11929 6.96627 2.5ZM18.9663 2.5C18.9663 3.88071 17.847 5 16.4663 5C15.0856 5 13.9663 3.88071 13.9663 2.5C13.9663 1.11929 15.0856 0 16.4663 0C17.847 0 18.9663 1.11929 18.9663 2.5ZM1.93253 15.7575C2.59633 13.2671 4.29022 10.8007 6.92648 10.1538C9.54367 9.51151 13.5915 10.5395 19.2592 16.2071L20.6734 14.7929C14.841 8.96053 10.1014 7.3153 6.44981 8.21142C2.81732 9.10287 0.761198 12.3866 0 15.2425L1.93253 15.7575Z" fill="black"/>
</svg>
